solid Carriage_Y_right_dragchain_bracket
   facet normal 0.000000e+00 0.000000e+00 1.000000e+00
      outer loop
         vertex 1.660000e+01 1.500000e+01 2.000000e+01
         vertex 2.160000e+01 1.500000e+01 2.000000e+01
         vertex 1.660000e+01 3.500000e+01 2.000000e+01
      endloop
   endfacet
   facet normal -0.000000e+00 0.000000e+00 1.000000e+00
      outer loop
         vertex 1.660000e+01 3.500000e+01 2.000000e+01
         vertex 2.160000e+01 1.500000e+01 2.000000e+01
         vertex 2.160000e+01 4.000000e+01 2.000000e+01
      endloop
   endfacet
   facet normal 0.000000e+00 -0.000000e+00 1.000000e+00
      outer loop
         vertex 1.660000e+01 3.500000e+01 2.000000e+01
         vertex 2.160000e+01 4.000000e+01 2.000000e+01
         vertex 5.000000e+00 3.500000e+01 2.000000e+01
      endloop
   endfacet
   facet normal 0.000000e+00 -0.000000e+00 1.000000e+00
      outer loop
         vertex 5.000000e+00 3.500000e+01 2.000000e+01
         vertex 2.160000e+01 4.000000e+01 2.000000e+01
         vertex 0.000000e+00 4.000000e+01 2.000000e+01
      endloop
   endfacet
   facet normal 0.000000e+00 0.000000e+00 1.000000e+00
      outer loop
         vertex 5.000000e+00 3.500000e+01 2.000000e+01
         vertex 0.000000e+00 4.000000e+01 2.000000e+01
         vertex 5.000000e+00 1.500000e+01 2.000000e+01
      endloop
   endfacet
   facet normal 0.000000e+00 0.000000e+00 1.000000e+00
      outer loop
         vertex 5.000000e+00 1.500000e+01 2.000000e+01
         vertex 0.000000e+00 4.000000e+01 2.000000e+01
         vertex 0.000000e+00 1.500000e+01 2.000000e+01
      endloop
   endfacet
   facet normal 0.000000e+00 -7.071068e-01 7.071068e-01
      outer loop
         vertex 5.000000e+00 1.500000e+01 2.000000e+01
         vertex 0.000000e+00 1.500000e+01 2.000000e+01
         vertex 5.000000e+00 -3.469447e-15 5.000000e+00
      endloop
   endfacet
   facet normal 0.000000e+00 -7.071068e-01 7.071068e-01
      outer loop
         vertex 5.000000e+00 -3.469447e-15 5.000000e+00
         vertex 0.000000e+00 1.500000e+01 2.000000e+01
         vertex 0.000000e+00 -3.469447e-15 5.000000e+00
      endloop
   endfacet
   facet normal 0.000000e+00 -7.071068e-01 7.071068e-01
      outer loop
         vertex 1.660000e+01 -3.469447e-15 5.000000e+00
         vertex 2.160000e+01 -3.469447e-15 5.000000e+00
         vertex 1.660000e+01 1.500000e+01 2.000000e+01
      endloop
   endfacet
   facet normal 0.000000e+00 -7.071068e-01 7.071068e-01
      outer loop
         vertex 1.660000e+01 1.500000e+01 2.000000e+01
         vertex 2.160000e+01 -3.469447e-15 5.000000e+00
         vertex 2.160000e+01 1.500000e+01 2.000000e+01
      endloop
   endfacet
   facet normal -1.000000e+00 0.000000e+00 -0.000000e+00
      outer loop
         vertex 0.000000e+00 1.500000e+01 2.000000e+01
         vertex 0.000000e+00 4.000000e+01 2.000000e+01
         vertex 0.000000e+00 0.000000e+00 5.000000e+00
      endloop
   endfacet
   facet normal -1.000000e+00 0.000000e+00 0.000000e+00
      outer loop
         vertex 0.000000e+00 0.000000e+00 5.000000e+00
         vertex 0.000000e+00 4.000000e+01 2.000000e+01
         vertex 0.000000e+00 4.000000e+01 0.000000e+00
      endloop
   endfacet
   facet normal -1.000000e+00 0.000000e+00 0.000000e+00
      outer loop
         vertex 0.000000e+00 0.000000e+00 5.000000e+00
         vertex 0.000000e+00 4.000000e+01 0.000000e+00
         vertex 0.000000e+00 0.000000e+00 0.000000e+00
      endloop
   endfacet
   facet normal 0.000000e+00 -1.000000e+00 0.000000e+00
      outer loop
         vertex 2.160000e+01 0.000000e+00 0.000000e+00
         vertex 2.160000e+01 0.000000e+00 5.000000e+00
         vertex 1.660000e+01 0.000000e+00 5.000000e+00
      endloop
   endfacet
   facet normal 0.000000e+00 -1.000000e+00 0.000000e+00
      outer loop
         vertex 2.160000e+01 0.000000e+00 0.000000e+00
         vertex 1.660000e+01 0.000000e+00 5.000000e+00
         vertex 0.000000e+00 0.000000e+00 0.000000e+00
      endloop
   endfacet
   facet normal 0.000000e+00 -1.000000e+00 0.000000e+00
      outer loop
         vertex 0.000000e+00 0.000000e+00 0.000000e+00
         vertex 1.660000e+01 0.000000e+00 5.000000e+00
         vertex 5.000000e+00 0.000000e+00 5.000000e+00
      endloop
   endfacet
   facet normal 0.000000e+00 -1.000000e+00 0.000000e+00
      outer loop
         vertex 0.000000e+00 0.000000e+00 0.000000e+00
         vertex 5.000000e+00 0.000000e+00 5.000000e+00
         vertex 0.000000e+00 0.000000e+00 5.000000e+00
      endloop
   endfacet
   facet normal 1.000000e+00 0.000000e+00 0.000000e+00
      outer loop
         vertex 2.160000e+01 4.000000e+01 2.000000e+01
         vertex 2.160000e+01 1.500000e+01 2.000000e+01
         vertex 2.160000e+01 4.000000e+01 0.000000e+00
      endloop
   endfacet
   facet normal 1.000000e+00 0.000000e+00 0.000000e+00
      outer loop
         vertex 2.160000e+01 4.000000e+01 0.000000e+00
         vertex 2.160000e+01 1.500000e+01 2.000000e+01
         vertex 2.160000e+01 0.000000e+00 5.000000e+00
      endloop
   endfacet
   facet normal 1.000000e+00 0.000000e+00 0.000000e+00
      outer loop
         vertex 2.160000e+01 4.000000e+01 0.000000e+00
         vertex 2.160000e+01 0.000000e+00 5.000000e+00
         vertex 2.160000e+01 0.000000e+00 0.000000e+00
      endloop
   endfacet
   facet normal -0.000000e+00 1.000000e+00 0.000000e+00
      outer loop
         vertex 0.000000e+00 4.000000e+01 2.000000e+01
         vertex 2.160000e+01 4.000000e+01 2.000000e+01
         vertex 0.000000e+00 4.000000e+01 0.000000e+00
      endloop
   endfacet
   facet normal 0.000000e+00 1.000000e+00 0.000000e+00
      outer loop
         vertex 0.000000e+00 4.000000e+01 0.000000e+00
         vertex 2.160000e+01 4.000000e+01 2.000000e+01
         vertex 2.160000e+01 4.000000e+01 0.000000e+00
      endloop
   endfacet
   facet normal -0.000000e+00 -0.000000e+00 -1.000000e+00
      outer loop
         vertex 2.160000e+01 4.000000e+01 0.000000e+00
         vertex 2.160000e+01 0.000000e+00 0.000000e+00
         vertex 0.000000e+00 4.000000e+01 0.000000e+00
      endloop
   endfacet
   facet normal 0.000000e+00 0.000000e+00 -1.000000e+00
      outer loop
         vertex 0.000000e+00 4.000000e+01 0.000000e+00
         vertex 2.160000e+01 0.000000e+00 0.000000e+00
         vertex 0.000000e+00 0.000000e+00 0.000000e+00
      endloop
   endfacet
   facet normal 1.000000e+00 0.000000e+00 0.000000e+00
      outer loop
         vertex 5.000000e+00 3.500000e+01 2.000000e+01
         vertex 5.000000e+00 1.500000e+01 2.000000e+01
         vertex 5.000000e+00 3.500000e+01 5.000000e+00
      endloop
   endfacet
   facet normal 1.000000e+00 0.000000e+00 0.000000e+00
      outer loop
         vertex 5.000000e+00 3.500000e+01 5.000000e+00
         vertex 5.000000e+00 1.500000e+01 2.000000e+01
         vertex 5.000000e+00 0.000000e+00 5.000000e+00
      endloop
   endfacet
   facet normal -1.000000e+00 0.000000e+00 0.000000e+00
      outer loop
         vertex 1.660000e+01 3.500000e+01 5.000000e+00
         vertex 1.660000e+01 0.000000e+00 5.000000e+00
         vertex 1.660000e+01 3.500000e+01 2.000000e+01
      endloop
   endfacet
   facet normal -1.000000e+00 -0.000000e+00 0.000000e+00
      outer loop
         vertex 1.660000e+01 3.500000e+01 2.000000e+01
         vertex 1.660000e+01 0.000000e+00 5.000000e+00
         vertex 1.660000e+01 1.500000e+01 2.000000e+01
      endloop
   endfacet
   facet normal -0.000000e+00 -1.000000e+00 -0.000000e+00
      outer loop
         vertex 1.660000e+01 3.500000e+01 2.000000e+01
         vertex 5.000000e+00 3.500000e+01 2.000000e+01
         vertex 1.660000e+01 3.500000e+01 5.000000e+00
      endloop
   endfacet
   facet normal 0.000000e+00 -1.000000e+00 0.000000e+00
      outer loop
         vertex 1.660000e+01 3.500000e+01 5.000000e+00
         vertex 5.000000e+00 3.500000e+01 2.000000e+01
         vertex 5.000000e+00 3.500000e+01 5.000000e+00
      endloop
   endfacet
   facet normal 0.000000e+00 -0.000000e+00 1.000000e+00
      outer loop
         vertex 1.660000e+01 0.000000e+00 5.000000e+00
         vertex 1.660000e+01 3.500000e+01 5.000000e+00
         vertex 5.000000e+00 0.000000e+00 5.000000e+00
      endloop
   endfacet
   facet normal 0.000000e+00 0.000000e+00 1.000000e+00
      outer loop
         vertex 5.000000e+00 0.000000e+00 5.000000e+00
         vertex 1.660000e+01 3.500000e+01 5.000000e+00
         vertex 5.000000e+00 3.500000e+01 5.000000e+00
      endloop
   endfacet
endsolid